<svg id="visual" viewBox="0 0 900 600" width="900" height="600" xmlns="http://www.w3.org/2000/svg" xmlns:xlink="http://www.w3.org/1999/xlink" version="1.1"><rect x="0" y="0" width="900" height="600" fill="#fff5ec"></rect><path d="M0 401L25 405C50 409 100 417 150 415.3C200 413.7 250 402.3 300 406.3C350 410.3 400 429.7 450 441.7C500 453.7 550 458.3 600 449.5C650 440.7 700 418.3 750 409C800 399.7 850 403.3 875 405.2L900 407L900 601L875 601C850 601 800 601 750 601C700 601 650 601 600 601C550 601 500 601 450 601C400 601 350 601 300 601C250 601 200 601 150 601C100 601 50 601 25 601L0 601Z" fill="#ff5b0a"></path><path d="M0 499L25 491.2C50 483.3 100 467.7 150 467C200 466.3 250 480.7 300 487C350 493.3 400 491.7 450 485.3C500 479 550 468 600 469.7C650 471.3 700 485.7 750 485.8C800 486 850 472 875 465L900 458L900 601L875 601C850 601 800 601 750 601C700 601 650 601 600 601C550 601 500 601 450 601C400 601 350 601 300 601C250 601 200 601 150 601C100 601 50 601 25 601L0 601Z" fill="#d03e0e"></path><path d="M0 519L25 516.8C50 514.7 100 510.3 150 507.8C200 505.3 250 504.7 300 509C350 513.3 400 522.7 450 525C500 527.3 550 522.7 600 524.2C650 525.7 700 533.3 750 536.5C800 539.7 850 538.3 875 537.7L900 537L900 601L875 601C850 601 800 601 750 601C700 601 650 601 600 601C550 601 500 601 450 601C400 601 350 601 300 601C250 601 200 601 150 601C100 601 50 601 25 601L0 601Z" fill="#a1220b"></path></svg>